<svg width="75" height="68" viewBox="0 0 75 68" fill="none" xmlns="http://www.w3.org/2000/svg">
<g clip-path="url(#clip0_43_83)">
<path d="M13.5597 16.4418C11.5962 16.4418 10.2121 15.1854 10.0833 13.3169C9.98676 12.2216 10.3086 11.223 10.9202 10.3209C11.564 9.41892 12.9803 8.7424 14.1069 9.41892C14.2035 9.48335 14.3323 9.51556 14.461 9.54778C15.9417 9.70885 17.2614 11.3518 17.2292 13.0592C17.1971 14.7022 15.8451 16.1197 14.1069 16.3774C13.9138 16.4096 13.6885 16.4418 13.5597 16.4418Z" fill="#37004A"/>
<path d="M29.1069 6.64842C26.8859 6.64842 25.4374 4.84438 25.9524 2.65375C26.1134 1.9128 26.4675 1.23629 27.0147 0.720845C27.6263 0.140973 28.3344 -0.148963 29.2035 0.0765422C29.5898 0.173187 29.976 0.173187 30.3301 0.269833C31.6177 0.527554 32.5191 1.30072 32.841 2.58932C33.195 3.87792 32.7122 4.90881 31.7464 5.7464C31.0061 6.3907 30.1048 6.64842 29.1069 6.64842Z" fill="#37004A"/>
<path d="M7.60483 25.6231C7.57264 27.7815 5.54474 29.1668 3.58122 28.3292C0.877359 27.2017 0.619848 24.2701 1.81084 22.4016C2.10053 21.9506 2.51899 21.6607 3.03401 21.4996C3.48466 21.3707 3.96749 21.3385 4.28938 21.6284C4.8044 22.1117 5.44817 22.2727 5.99538 22.6271C6.99324 23.2714 7.60483 24.3989 7.60483 25.6231Z" fill="#37004A"/>
<path d="M12.1113 58.8048C9.76154 58.8048 8.02334 56.9363 8.1521 54.7779C8.24866 53.2638 9.21433 52.5228 10.695 52.8772C10.9203 52.9416 11.1457 52.9094 11.371 52.9416C11.7894 52.9739 12.2401 52.9739 12.6585 53.0383C14.1392 53.296 15.2015 54.488 15.2015 55.9054C15.2015 57.2262 14.1392 58.4504 12.7229 58.7726C12.4976 58.7726 12.2401 58.7726 12.1113 58.8048Z" fill="#37004A"/>
<path d="M6.22072 40.1845C6.22072 41.3442 5.86664 42.3107 5.09411 43.0838C4.03188 44.1469 2.48682 44.2436 1.32802 43.2771C-0.120481 42.1174 -0.442369 39.7012 0.652052 38.2516C1.45677 37.1885 2.61557 36.9952 3.83874 37.2529C5.09411 37.5106 5.83445 38.3482 6.12415 39.6046C6.18853 39.8301 6.22072 40.0556 6.22072 40.1845Z" fill="#37004A"/>
<path d="M40.4697 63.7659C40.4697 62.0907 41.7251 60.8666 43.4955 60.8666C45.5556 60.8666 47.0363 62.2196 47.0363 64.1203C47.0363 65.7955 45.5878 67.1485 43.8174 67.1807C41.9182 67.1807 40.4697 65.6988 40.4697 63.7659Z" fill="#37004A"/>
<path d="M26.7572 66.6008C24.7293 66.6008 22.7658 64.6357 22.798 62.6062C22.798 61.1887 23.8924 60.4155 25.2443 60.8343C25.5662 60.931 25.9525 60.931 26.3066 60.931C27.7873 60.8666 28.8817 61.5431 29.3645 62.7995C30.1049 64.7002 28.8173 66.6331 26.7572 66.6008Z" fill="#37004A"/>
<path d="M65.2229 57.5806C65.2229 58.9981 64.0319 60.2545 62.5512 60.4155C61.2637 60.5444 59.9118 59.7712 59.4289 58.5793C59.107 57.8061 59.1392 57.0652 59.6221 56.3887C59.6542 56.3242 59.7186 56.2598 59.7508 56.1954C60.8452 54.6813 62.4869 54.3913 64.0641 55.4222C64.8045 55.9376 65.2229 56.7108 65.2229 57.5806Z" fill="#37004A"/>
<path d="M40.1478 4.36115C40.1478 3.68463 40.3088 3.13698 40.6628 2.62154C41.3066 1.65509 42.3367 1.39736 43.3667 1.94502C43.7852 2.17053 44.1714 2.39603 44.5577 2.68597C45.3946 3.36248 45.7487 4.23229 45.4912 5.29539C45.2337 6.3907 44.4933 7.06722 43.3667 7.29272C42.3045 7.48601 41.4354 7.09943 40.7916 6.26184C40.341 5.68197 40.1478 5.03767 40.1478 4.36115Z" fill="#37004A"/>
<path d="M71.7251 40.6355C73.4311 40.6033 74.7509 42.0207 74.7187 43.5348C74.6865 44.4369 74.3646 45.1778 73.6886 45.7899C72.2723 47.0785 70.1157 46.402 69.6972 44.5335C69.6007 44.1147 69.5685 43.6315 69.6972 43.2449C69.8904 42.6006 70.2123 41.9563 70.5341 41.3442C70.856 40.8288 71.4032 40.6355 71.7251 40.6355Z" fill="#37004A"/>
<path d="M47.0041 25.6231C47.0041 25.5265 46.9719 25.3976 46.9719 25.2687C46.9075 24.2057 47.4869 23.4969 48.4848 23.2714C49.8689 22.9815 51.4139 23.9157 51.7036 25.2365C52.0255 26.6218 51.1242 27.9748 49.7079 28.3292C48.2594 28.6835 46.6822 27.5882 46.9397 25.9453C46.9719 25.8486 46.9719 25.752 47.0041 25.6231Z" fill="#37004A"/>
<path d="M21.2207 19.921C21.2529 18.9224 21.5104 18.1492 22.1542 17.5693C23.2486 16.5707 24.7615 16.925 25.2443 18.117C25.3731 18.4069 25.534 18.6647 25.695 18.9224C26.1456 19.7922 26.1778 20.662 25.5984 21.4674C25.0512 22.2405 24.2786 22.5949 23.313 22.4338C22.2829 22.2727 21.6713 21.6284 21.3495 20.6942C21.2851 20.3721 21.2529 20.0821 21.2207 19.921Z" fill="#37004A"/>
<path d="M33.5491 48.3027C34.4182 48.6892 35.5448 48.947 36.1564 50.0101C36.6392 50.8799 36.4461 51.943 35.7058 52.7161C34.9332 53.4893 33.8066 53.6826 32.8731 53.2316C31.5211 52.5551 30.9417 50.6866 31.6821 49.3658C32.0361 48.6892 32.6478 48.3027 33.5491 48.3027Z" fill="#37004A"/>
<path d="M47.5191 51.0087C46.1349 51.0087 45.0083 49.849 45.0727 48.4637C45.1049 47.9161 45.2658 47.3362 45.5233 46.853C45.9096 46.0798 46.6499 45.7899 47.4547 45.951C48.0019 46.0476 48.5491 46.2731 48.9997 46.5953C49.9654 47.2396 50.3195 48.3027 49.9976 49.2691C49.6757 50.3 48.6135 51.0087 47.5191 51.0087Z" fill="#37004A"/>
<path d="M15.5233 29.9077C15.5233 29.199 15.7164 28.5869 16.2315 28.1037C17.0362 27.3627 18.195 27.4272 18.871 28.2647C19.0963 28.5547 19.3216 28.8124 19.5791 29.0701C19.9654 29.4567 20.2551 29.9077 20.3838 30.4554C20.7057 31.9695 19.4504 33.2582 17.9375 32.9683C16.6177 32.7428 15.5555 31.3896 15.5233 29.9077Z" fill="#37004A"/>
<path d="M56.178 13.4458C55.2445 13.4458 54.4398 12.8659 54.2144 11.9317C54.1179 11.5129 53.9569 11.1263 53.6672 10.772C52.9913 9.96658 53.2488 8.83905 54.1822 8.35582C54.3754 8.25918 54.6007 8.16253 54.826 8.13032C56.3389 7.93703 58.1415 9.32228 58.3024 10.8364C58.4634 12.2216 57.4655 13.4458 56.178 13.4458Z" fill="#37004A"/>
<path d="M34.6436 16.3774C34.6436 17.1505 34.5149 17.7304 34.1286 18.2781C33.3239 19.4378 31.7465 19.5345 30.8131 18.4391C30.0405 17.5693 29.9761 16.3452 30.5877 15.3787C30.7165 15.1532 30.8452 14.9277 30.9418 14.7022C31.4568 13.4136 32.9054 13.1237 33.8389 14.1545C34.4827 14.8311 34.6436 15.6364 34.6436 16.3774Z" fill="#37004A"/>
<path d="M66.1243 20.1788C66.1243 21.4029 65.223 22.3694 64.032 22.466C62.7444 22.5627 61.6178 21.6284 61.4891 20.3076C61.4247 19.8244 61.4569 19.3412 61.4891 18.8579C61.5856 18.0204 62.2616 17.4405 63.1307 17.376C64.5792 17.2472 66.1565 18.7291 66.1243 20.1788Z" fill="#37004A"/>
<path d="M72.9483 29.65C72.9483 30.8742 71.9826 31.9695 70.7273 32.0983C69.5685 32.2273 68.4419 31.454 68.2165 30.2943C68.0556 29.5211 68.2487 28.748 68.5706 28.0715C68.6994 27.7815 69.0535 27.5238 69.3432 27.3627C70.856 26.6218 72.9483 27.9426 72.9483 29.65Z" fill="#37004A"/>
<path d="M57.9483 37.7683C57.9483 38.8314 57.2723 39.7334 56.2423 39.959C55.2766 40.1845 54.311 39.669 53.8603 38.7026C53.7316 38.4448 53.5706 38.1549 53.3775 37.9294C52.7015 36.9952 53.0234 35.771 54.0856 35.2878C55.7594 34.5468 57.9483 35.9643 57.9483 37.7683Z" fill="#37004A"/>
<path d="M42.4011 18.7291C42.4011 18.8257 42.4011 18.9546 42.3689 19.1157C42.208 20.211 41.4355 20.9841 40.4376 20.9841C39.4719 20.9841 38.6672 20.2754 38.4741 19.2445C38.3775 18.6647 38.2488 18.0848 38.1522 17.5049C38.0234 16.8284 38.1844 16.2163 38.7638 15.7975C39.3754 15.3465 40.0191 15.3787 40.6629 15.7331C41.532 16.1841 42.4011 17.6338 42.4011 18.7291Z" fill="#37004A"/>
<path d="M24.9869 43.8248C24.9225 44.6624 24.504 45.3711 23.6349 45.7577C22.7658 46.1443 21.9289 46.0154 21.1886 45.3711C20.3195 44.6301 20.0298 43.2449 20.5126 42.1818C20.9955 41.1187 22.1864 40.6999 23.2487 41.2476C24.3431 41.7952 24.9869 42.7295 24.9869 43.8248Z" fill="#37004A"/>
<path d="M32.5191 30.1977C32.4869 30.6809 32.4869 31.003 32.4547 31.293C32.3259 32.0661 31.8752 32.5817 31.1027 32.8072C30.3623 33.0005 29.7185 32.775 29.2357 32.2273C28.3344 31.2608 28.431 29.5856 29.3323 28.6835C29.9439 28.1037 30.813 27.9426 31.5533 28.297C32.2615 28.6191 32.5834 29.2956 32.5512 30.1332C32.5191 30.2299 32.5191 30.2943 32.5191 30.1977Z" fill="#37004A"/>
<path d="M40.6306 41.9563C40.6306 42.7939 40.019 43.5026 39.15 43.6959C38.313 43.8892 37.5727 43.6637 36.9611 43.0194C36.3817 42.3751 36.1886 41.6341 36.4139 40.7965C36.607 40.0878 37.0899 39.6368 37.798 39.4757C38.474 39.3147 39.0534 39.5402 39.5362 40.0556C39.7293 40.2811 39.9547 40.5066 40.1478 40.7321C40.5019 41.0865 40.6628 41.4731 40.6306 41.9563Z" fill="#37004A"/>
<path d="M32.4226 38.6059C32.3904 39.6368 32.0684 40.2489 31.3602 40.6033C30.6521 40.9576 29.9439 40.861 29.3323 40.3777C28.3989 39.669 28.1735 38.2193 28.7851 37.2207C29.5255 36.0287 31.1349 36.0287 31.8431 37.2529C32.1328 37.7039 32.2938 38.2838 32.4226 38.6059Z" fill="#37004A"/>
<path d="M44.107 32.5495C44.107 33.5159 43.5598 34.3213 42.7229 34.5468C41.886 34.7723 40.9847 34.3857 40.5341 33.5482C40.2444 33.0327 40.1156 32.4528 40.2444 31.8406C40.4053 31.0675 40.856 30.552 41.6285 30.3587C42.3688 30.1654 42.9804 30.4232 43.4954 30.9708C43.9139 31.3896 44.0748 31.9695 44.107 32.5495Z" fill="#37004A"/>
<path d="M39.1179 28.7802C38.0556 28.7802 37.09 27.7815 37.09 26.6862C37.09 25.7198 37.8303 24.9788 38.796 25.011C40.0513 25.011 41.017 25.8486 41.017 26.8795C41.017 27.8782 40.1479 28.7802 39.1179 28.7802Z" fill="#37004A"/>
</g>
<defs>
<clipPath id="clip0_43_83">
<rect width="75" height="67.3295" fill="white"/>
</clipPath>
</defs>
</svg>
